<svg xmlns="http://www.w3.org/2000/svg" xmlns:xlink="http://www.w3.org/1999/xlink" width="1920" height="499" viewBox="0 0 1920 499">
  <defs>
    <clipPath id="clip-arhaanb">
      <rect width="1920" height="499"/>
    </clipPath>
  </defs>
  <g id="arhaanb" clip-path="url(#clip-arhaanb)">
    <path id="Path_1" data-name="Path 1" d="M-752.948,0l10.8-33.168h52.486L-678.871,0h32.955l-50.142-145.455h-39.631L-785.9,0Zm18.608-57.173,17.9-55.043h1.136l17.9,55.043ZM-629.013,0h30.256V-61.719c0-13.423,9.8-22.656,23.153-22.656a50.889,50.889,0,0,1,12.784,1.634v-26.847a45.411,45.411,0,0,0-9.517-1.065c-12.216,0-22.23,7.1-26.207,20.6h-1.136v-19.034h-29.332Zm112-63.068c.071-14.063,8.665-22.3,21.023-22.3,12.287,0,19.531,7.884,19.46,21.307V0h30.256V-69.46c.071-25.568-14.986-41.051-37.713-41.051-16.548,0-27.628,7.813-32.6,20.668h-1.278v-55.611h-29.4V0h30.256ZM-391.3,2.06c16.122,0,26.563-7.031,31.889-17.188h.852V0h28.693V-73.58c0-25.994-22.017-36.932-46.307-36.932-26.136,0-43.324,12.5-47.514,32.386l27.983,2.273c2.06-7.244,8.523-12.571,19.389-12.571,10.3,0,16.193,5.185,16.193,14.134v.426c0,7.031-7.457,7.955-26.42,9.8-21.591,1.989-40.98,9.233-40.98,33.594C-427.521-8.878-412.109,2.06-391.3,2.06Zm8.665-20.881c-9.3,0-15.98-4.332-15.98-12.642,0-8.523,7.031-12.713,17.685-14.2,6.605-.923,17.4-2.486,21.023-4.9v11.577C-359.908-27.557-369.354-18.821-382.635-18.821ZM-275.249,2.06c16.122,0,26.563-7.031,31.889-17.188h.852V0h28.693V-73.58c0-25.994-22.017-36.932-46.307-36.932-26.136,0-43.324,12.5-47.514,32.386l27.983,2.273c2.06-7.244,8.523-12.571,19.389-12.571,10.3,0,16.193,5.185,16.193,14.134v.426c0,7.031-7.457,7.955-26.42,9.8-21.591,1.989-40.98,9.233-40.98,33.594C-311.47-8.878-296.058,2.06-275.249,2.06Zm8.665-20.881c-9.3,0-15.98-4.332-15.98-12.642,0-8.523,7.031-12.713,17.685-14.2,6.605-.923,17.4-2.486,21.023-4.9v11.577C-243.857-27.557-253.3-18.821-266.584-18.821ZM-160.05-63.068c.071-14.063,8.452-22.3,20.668-22.3,12.145,0,19.46,7.955,19.389,21.307V0h30.256V-69.46c0-25.426-14.915-41.051-37.642-41.051-16.193,0-27.912,7.955-32.812,20.668h-1.278v-19.247h-28.835V0h30.256ZM-19,0H43.146c32.67,0,50.071-17.045,50.071-40.2,0-21.52-15.412-34.517-31.96-35.3v-1.42c15.128-3.409,26.278-14.134,26.278-31.25,0-21.8-16.193-37.287-48.3-37.287H-19ZM11.754-25.142V-63.778H37.535c14.773,0,23.935,8.523,23.935,20.526,0,10.938-7.457,18.111-24.645,18.111Zm0-59.446V-120.6H35.121c13.636,0,21.378,7.031,21.378,17.543,0,11.506-9.375,18.466-21.946,18.466ZM143.714,2.06c16.122,0,26.563-7.031,31.889-17.188h.852V0h28.693V-73.58c0-25.994-22.017-36.932-46.307-36.932-26.136,0-43.324,12.5-47.514,32.386l27.983,2.273c2.06-7.244,8.523-12.571,19.389-12.571,10.3,0,16.193,5.185,16.193,14.134v.426c0,7.031-7.457,7.955-26.42,9.8-21.591,1.989-40.98,9.233-40.98,33.594C107.493-8.878,122.9,2.06,143.714,2.06Zm8.665-20.881c-9.3,0-15.98-4.332-15.98-12.642,0-8.523,7.031-12.713,17.685-14.2,6.605-.923,17.4-2.486,21.023-4.9v11.577C175.106-27.557,165.66-18.821,152.379-18.821ZM258.913-63.068c.071-14.063,8.665-22.3,21.023-22.3,12.287,0,19.531,7.884,19.46,21.307V0h30.256V-69.46c.071-25.568-14.986-41.051-37.713-41.051-16.548,0-27.628,7.813-32.6,20.668h-1.278v-55.611h-29.4V0h30.256ZM384.624,2.06c16.122,0,26.563-7.031,31.889-17.188h.852V0h28.693V-73.58c0-25.994-22.017-36.932-46.307-36.932-26.136,0-43.324,12.5-47.514,32.386l27.983,2.273c2.06-7.244,8.523-12.571,19.389-12.571,10.3,0,16.193,5.185,16.193,14.134v.426c0,7.031-7.457,7.955-26.42,9.8-21.591,1.989-40.98,9.233-40.98,33.594C348.4-8.878,363.814,2.06,384.624,2.06Zm8.665-20.881c-9.3,0-15.98-4.332-15.98-12.642,0-8.523,7.031-12.713,17.685-14.2,6.605-.923,17.4-2.486,21.023-4.9v11.577C416.016-27.557,406.57-18.821,393.288-18.821Zm116.477,20.6c17.614,0,26.776-10.156,30.966-19.247h1.278V0h29.83V-145.455H541.655v54.687h-.923c-4.048-8.878-12.784-19.744-31.037-19.744-23.935,0-44.176,18.608-44.176,56.108C465.518-17.9,484.908,1.776,509.766,1.776ZM519.354-22.3c-14.844,0-22.94-13.21-22.94-32.244,0-18.892,7.955-31.889,22.94-31.889,14.7,0,22.94,12.429,22.94,31.889S533.913-22.3,519.354-22.3Zm147.23-24.148c.071,14.631-9.943,22.3-20.81,22.3-11.435,0-18.821-8.026-18.892-20.881v-64.063H596.626v69.46c.071,25.5,14.986,41.051,36.932,41.051,16.406,0,28.2-8.452,33.1-21.236h1.136V0h29.048V-109.091H666.584ZM720.987,0h30.256V-61.719c0-13.423,9.8-22.656,23.153-22.656a50.889,50.889,0,0,1,12.784,1.634v-26.847a45.411,45.411,0,0,0-9.517-1.065c-12.216,0-22.23,7.1-26.207,20.6H750.32v-19.034H720.987Z" transform="translate(959.5 257)" fill="#0082fb"/>
    <path id="Path_2" data-name="Path 2" d="M-324.738-16.927c8.829,0,14.1-4.14,16.522-8.866h.44v7.73h12.749V-55.723c0-14.874-12.126-19.343-22.86-19.343-11.833,0-20.918,5.275-23.849,15.533l12.383,1.758c1.319-3.847,5.056-7.144,11.54-7.144,6.155,0,9.525,3.151,9.525,8.682v.22c0,3.81-3.993,3.993-13.921,5.056-10.917,1.172-21.358,4.433-21.358,17.108C-343.568-22.789-335.472-16.927-324.738-16.927Zm3.444-9.745c-5.532,0-9.488-2.528-9.488-7.4,0-5.092,4.433-7.217,10.368-8.06,3.48-.476,10.441-1.355,12.163-2.748v6.631C-308.252-31.984-313.308-26.672-321.294-26.672Zm39.639,8.609h13.262V-51.144c0-7.144,5.385-12.2,12.676-12.2a25.343,25.343,0,0,1,6.155.769v-12.2a31.843,31.843,0,0,0-4.763-.366,14.049,14.049,0,0,0-13.885,10.184h-.586v-9.379h-12.859Zm54.183-32.971c0-8.133,5.056-12.822,12.163-12.822,6.961,0,11.064,4.433,11.064,12.016v33.777h13.262V-53.892c0-13.591-7.693-21.175-19.38-21.175-8.646,0-14.141,3.92-16.742,10.294h-.659V-93.091h-12.969v75.028h13.262Zm66.162,34.107c8.829,0,14.1-4.14,16.522-8.866h.44v7.73H-131.6V-55.723c0-14.874-12.126-19.343-22.86-19.343-11.833,0-20.918,5.275-23.849,15.533l12.383,1.758c1.319-3.847,5.056-7.144,11.54-7.144,6.155,0,9.525,3.151,9.525,8.682v.22c0,3.81-3.993,3.993-13.921,5.056-10.917,1.172-21.358,4.433-21.358,17.108C-180.141-22.789-172.044-16.927-161.31-16.927Zm3.444-9.745c-5.532,0-9.488-2.528-9.488-7.4,0-5.092,4.433-7.217,10.368-8.06,3.48-.476,10.441-1.355,12.163-2.748v6.631C-144.825-31.984-149.88-26.672-157.867-26.672Zm55.831,9.745c8.829,0,14.1-4.14,16.522-8.866h.44v7.73h12.749V-55.723c0-14.874-12.126-19.343-22.86-19.343-11.833,0-20.918,5.275-23.849,15.533l12.383,1.758c1.319-3.847,5.056-7.144,11.54-7.144,6.155,0,9.525,3.151,9.525,8.682v.22c0,3.81-3.993,3.993-13.921,5.056-10.917,1.172-21.358,4.433-21.358,17.108C-120.866-22.789-112.769-16.927-102.035-16.927Zm3.444-9.745c-5.532,0-9.488-2.528-9.488-7.4,0-5.092,4.433-7.217,10.368-8.06,3.48-.476,10.441-1.355,12.163-2.748v6.631C-85.55-31.984-90.605-26.672-98.592-26.672Zm52.9-24.362c0-8.133,4.909-12.822,11.906-12.822,6.851,0,10.954,4.506,10.954,12.016v33.777H-9.569V-53.892c.037-13.482-7.657-21.175-19.27-21.175-8.426,0-14.214,4.03-16.779,10.294h-.659v-9.562H-58.953v56.271h13.262ZM4.535-18.063H17.577v-8.866h.769c2.088,4.1,6.448,9.855,16.119,9.855,13.262,0,23.19-10.514,23.19-29.051,0-18.757-10.221-28.941-23.226-28.941-9.928,0-14.068,5.971-16.083,10.038H17.8V-93.091H4.535ZM17.541-46.2c0-10.917,4.689-17.988,13.225-17.988,8.829,0,13.372,7.51,13.372,17.988,0,10.551-4.616,18.244-13.372,18.244C22.3-27.954,17.541-35.281,17.541-46.2Zm59.6,28.941a8.155,8.155,0,0,0,8.06-8.06,8.141,8.141,0,0,0-8.06-7.986,8,8,0,0,0-8.06,7.986A8.013,8.013,0,0,0,77.145-17.257Zm46.343.293c14.141,0,23.153-8.389,24.106-20.332H134.918c-1.136,6.045-5.5,9.525-11.32,9.525-8.279,0-13.628-6.924-13.628-18.427,0-11.357,5.459-18.171,13.628-18.171,6.374,0,10.294,4.1,11.32,9.525h12.676c-.916-12.2-10.441-20.222-24.179-20.222-16.486,0-26.89,11.906-26.89,29.088C96.525-28.943,106.673-16.964,123.488-16.964Zm59.568,0c16.486,0,26.963-11.613,26.963-29.015,0-17.438-10.478-29.088-26.963-29.088s-26.963,11.65-26.963,29.088C156.093-28.577,166.571-16.964,183.056-16.964Zm.073-10.624c-9.122,0-13.591-8.133-13.591-18.427s4.469-18.537,13.591-18.537c8.976,0,13.445,8.243,13.445,18.537S192.105-27.588,183.13-27.588Z" transform="translate(1019 411)" fill="#0082fb" opacity="0.6"/>
  </g>
</svg>
