<svg xmlns="http://www.w3.org/2000/svg" xmlns:xlink="http://www.w3.org/1999/xlink" width="1920" height="640" viewBox="0 0 1920 640">
  <defs>
    <clipPath id="clip-arhaanb">
      <rect width="1920" height="640"/>
    </clipPath>
  </defs>
  <g id="arhaanb" clip-path="url(#clip-arhaanb)">
    <path id="Path_1" data-name="Path 1" d="M-752.948,0l10.8-33.168h52.486L-678.871,0h32.955l-50.142-145.455h-39.631L-785.9,0Zm18.608-57.173,17.9-55.043h1.136l17.9,55.043ZM-629.013,0h30.256V-61.719c0-13.423,9.8-22.656,23.153-22.656a50.889,50.889,0,0,1,12.784,1.634v-26.847a45.411,45.411,0,0,0-9.517-1.065c-12.216,0-22.23,7.1-26.207,20.6h-1.136v-19.034h-29.332Zm112-63.068c.071-14.063,8.665-22.3,21.023-22.3,12.287,0,19.531,7.884,19.46,21.307V0h30.256V-69.46c.071-25.568-14.986-41.051-37.713-41.051-16.548,0-27.628,7.813-32.6,20.668h-1.278v-55.611h-29.4V0h30.256ZM-391.3,2.06c16.122,0,26.563-7.031,31.889-17.188h.852V0h28.693V-73.58c0-25.994-22.017-36.932-46.307-36.932-26.136,0-43.324,12.5-47.514,32.386l27.983,2.273c2.06-7.244,8.523-12.571,19.389-12.571,10.3,0,16.193,5.185,16.193,14.134v.426c0,7.031-7.457,7.955-26.42,9.8-21.591,1.989-40.98,9.233-40.98,33.594C-427.521-8.878-412.109,2.06-391.3,2.06Zm8.665-20.881c-9.3,0-15.98-4.332-15.98-12.642,0-8.523,7.031-12.713,17.685-14.2,6.605-.923,17.4-2.486,21.023-4.9v11.577C-359.908-27.557-369.354-18.821-382.635-18.821ZM-275.249,2.06c16.122,0,26.563-7.031,31.889-17.188h.852V0h28.693V-73.58c0-25.994-22.017-36.932-46.307-36.932-26.136,0-43.324,12.5-47.514,32.386l27.983,2.273c2.06-7.244,8.523-12.571,19.389-12.571,10.3,0,16.193,5.185,16.193,14.134v.426c0,7.031-7.457,7.955-26.42,9.8-21.591,1.989-40.98,9.233-40.98,33.594C-311.47-8.878-296.058,2.06-275.249,2.06Zm8.665-20.881c-9.3,0-15.98-4.332-15.98-12.642,0-8.523,7.031-12.713,17.685-14.2,6.605-.923,17.4-2.486,21.023-4.9v11.577C-243.857-27.557-253.3-18.821-266.584-18.821ZM-160.05-63.068c.071-14.063,8.452-22.3,20.668-22.3,12.145,0,19.46,7.955,19.389,21.307V0h30.256V-69.46c0-25.426-14.915-41.051-37.642-41.051-16.193,0-27.912,7.955-32.812,20.668h-1.278v-19.247h-28.835V0h30.256ZM-19,0H43.146c32.67,0,50.071-17.045,50.071-40.2,0-21.52-15.412-34.517-31.96-35.3v-1.42c15.128-3.409,26.278-14.134,26.278-31.25,0-21.8-16.193-37.287-48.3-37.287H-19ZM11.754-25.142V-63.778H37.535c14.773,0,23.935,8.523,23.935,20.526,0,10.938-7.457,18.111-24.645,18.111Zm0-59.446V-120.6H35.121c13.636,0,21.378,7.031,21.378,17.543,0,11.506-9.375,18.466-21.946,18.466ZM143.714,2.06c16.122,0,26.563-7.031,31.889-17.188h.852V0h28.693V-73.58c0-25.994-22.017-36.932-46.307-36.932-26.136,0-43.324,12.5-47.514,32.386l27.983,2.273c2.06-7.244,8.523-12.571,19.389-12.571,10.3,0,16.193,5.185,16.193,14.134v.426c0,7.031-7.457,7.955-26.42,9.8-21.591,1.989-40.98,9.233-40.98,33.594C107.493-8.878,122.9,2.06,143.714,2.06Zm8.665-20.881c-9.3,0-15.98-4.332-15.98-12.642,0-8.523,7.031-12.713,17.685-14.2,6.605-.923,17.4-2.486,21.023-4.9v11.577C175.106-27.557,165.66-18.821,152.379-18.821ZM258.913-63.068c.071-14.063,8.665-22.3,21.023-22.3,12.287,0,19.531,7.884,19.46,21.307V0h30.256V-69.46c.071-25.568-14.986-41.051-37.713-41.051-16.548,0-27.628,7.813-32.6,20.668h-1.278v-55.611h-29.4V0h30.256ZM384.624,2.06c16.122,0,26.563-7.031,31.889-17.188h.852V0h28.693V-73.58c0-25.994-22.017-36.932-46.307-36.932-26.136,0-43.324,12.5-47.514,32.386l27.983,2.273c2.06-7.244,8.523-12.571,19.389-12.571,10.3,0,16.193,5.185,16.193,14.134v.426c0,7.031-7.457,7.955-26.42,9.8-21.591,1.989-40.98,9.233-40.98,33.594C348.4-8.878,363.814,2.06,384.624,2.06Zm8.665-20.881c-9.3,0-15.98-4.332-15.98-12.642,0-8.523,7.031-12.713,17.685-14.2,6.605-.923,17.4-2.486,21.023-4.9v11.577C416.016-27.557,406.57-18.821,393.288-18.821Zm116.477,20.6c17.614,0,26.776-10.156,30.966-19.247h1.278V0h29.83V-145.455H541.655v54.687h-.923c-4.048-8.878-12.784-19.744-31.037-19.744-23.935,0-44.176,18.608-44.176,56.108C465.518-17.9,484.908,1.776,509.766,1.776ZM519.354-22.3c-14.844,0-22.94-13.21-22.94-32.244,0-18.892,7.955-31.889,22.94-31.889,14.7,0,22.94,12.429,22.94,31.889S533.913-22.3,519.354-22.3Zm147.23-24.148c.071,14.631-9.943,22.3-20.81,22.3-11.435,0-18.821-8.026-18.892-20.881v-64.063H596.626v69.46c.071,25.5,14.986,41.051,36.932,41.051,16.406,0,28.2-8.452,33.1-21.236h1.136V0h29.048V-109.091H666.584ZM720.987,0h30.256V-61.719c0-13.423,9.8-22.656,23.153-22.656a50.889,50.889,0,0,1,12.784,1.634v-26.847a45.411,45.411,0,0,0-9.517-1.065c-12.216,0-22.23,7.1-26.207,20.6H750.32v-19.034H720.987Z" transform="translate(967.5 318)" fill="#0082fb"/>
    <path id="Path_2" data-name="Path 2" d="M-320.2,1.409c10.955,0,17.5-5.136,20.5-11h.545V0h15.818V-46.727c0-18.455-15.045-24-28.364-24-14.682,0-25.955,6.545-29.591,19.273l15.364,2.182c1.636-4.773,6.273-8.864,14.318-8.864,7.636,0,11.818,3.909,11.818,10.773v.273c0,4.727-4.955,4.955-17.273,6.273-13.545,1.455-26.5,5.5-26.5,21.227C-343.568-5.864-333.523,1.409-320.2,1.409Zm4.273-12.091c-6.864,0-11.773-3.136-11.773-9.182,0-6.318,5.5-8.955,12.864-10,4.318-.591,12.955-1.682,15.091-3.409v8.227C-299.75-17.273-306.023-10.682-315.932-10.682ZM-266.75,0H-250.3V-41.045c0-8.864,6.682-15.136,15.727-15.136a31.445,31.445,0,0,1,7.636.955V-70.364a39.51,39.51,0,0,0-5.909-.455,17.431,17.431,0,0,0-17.227,12.636h-.727V-69.818H-266.75Zm67.227-40.909c0-10.091,6.273-15.909,15.091-15.909,8.636,0,13.727,5.5,13.727,14.909V0h16.455V-44.455c0-16.864-9.545-26.273-24.045-26.273-10.727,0-17.545,4.864-20.773,12.773h-.818V-93.091h-16.091V0h16.455Zm82.091,42.318c10.955,0,17.5-5.136,20.5-11h.545V0h15.818V-46.727c0-18.455-15.045-24-28.364-24-14.682,0-25.955,6.545-29.591,19.273l15.364,2.182c1.636-4.773,6.273-8.864,14.318-8.864,7.636,0,11.818,3.909,11.818,10.773v.273c0,4.727-4.955,4.955-17.273,6.273-13.545,1.455-26.5,5.5-26.5,21.227C-140.8-5.864-130.75,1.409-117.432,1.409Zm4.273-12.091c-6.864,0-11.773-3.136-11.773-9.182,0-6.318,5.5-8.955,12.864-10,4.318-.591,12.955-1.682,15.091-3.409v8.227C-96.977-17.273-103.25-10.682-113.159-10.682ZM-43.886,1.409c10.955,0,17.5-5.136,20.5-11h.545V0H-7.023V-46.727c0-18.455-15.045-24-28.364-24-14.682,0-25.955,6.545-29.591,19.273l15.364,2.182c1.636-4.773,6.273-8.864,14.318-8.864,7.636,0,11.818,3.909,11.818,10.773v.273c0,4.727-4.955,4.955-17.273,6.273-13.545,1.455-26.5,5.5-26.5,21.227C-67.25-5.864-57.2,1.409-43.886,1.409Zm4.273-12.091c-6.864,0-11.773-3.136-11.773-9.182,0-6.318,5.5-8.955,12.864-10,4.318-.591,12.955-1.682,15.091-3.409v8.227C-23.432-17.273-29.7-10.682-39.614-10.682ZM26.023-40.909C26.023-51,32.114-56.818,40.8-56.818c8.5,0,13.591,5.591,13.591,14.909V0H70.841V-44.455c.045-16.727-9.5-26.273-23.909-26.273-10.455,0-17.636,5-20.818,12.773H25.3V-69.818H9.568V0H26.023ZM88.341,0h16.182V-11h.955c2.591,5.091,8,12.227,20,12.227,16.455,0,28.773-13.045,28.773-36.045,0-23.273-12.682-35.909-28.818-35.909-12.318,0-17.455,7.409-19.955,12.455H104.8V-93.091H88.341Zm16.136-34.909c0-13.545,5.818-22.318,16.409-22.318,10.955,0,16.591,9.318,16.591,22.318,0,13.091-5.727,22.636-16.591,22.636C110.386-12.273,104.477-21.364,104.477-34.909ZM178.432,1a10.118,10.118,0,0,0,10-10,10.1,10.1,0,0,0-10-9.909,9.923,9.923,0,0,0-10,9.909A9.943,9.943,0,0,0,178.432,1Zm57.5.364c17.545,0,28.727-10.409,29.909-25.227H250.114c-1.409,7.5-6.818,11.818-14.045,11.818-10.273,0-16.909-8.591-16.909-22.864,0-14.091,6.773-22.545,16.909-22.545,7.909,0,12.773,5.091,14.045,11.818h15.727c-1.136-15.136-12.955-25.091-30-25.091-20.455,0-33.364,14.773-33.364,36.091C202.477-13.5,215.068,1.364,235.932,1.364Zm73.909,0c20.455,0,33.455-14.409,33.455-36,0-21.636-13-36.091-33.455-36.091s-33.455,14.455-33.455,36.091C276.386-13.045,289.386,1.364,309.841,1.364Zm.091-13.182c-11.318,0-16.864-10.091-16.864-22.864s5.545-23,16.864-23c11.136,0,16.682,10.227,16.682,23S321.068-11.818,309.932-11.818Z" transform="translate(960 461)" fill="#0082fb" opacity="0.6"/>
  </g>
</svg>
