<svg width="4249" height="1452" viewBox="0 0 4249 1452" fill="none" xmlns="http://www.w3.org/2000/svg">
<path d="M769.083 742L788.515 682.298H882.989L902.421 742H961.739L871.483 480.182H800.148L709.765 742H769.083ZM802.577 639.088L834.793 540.011H836.838L869.054 639.088H802.577ZM992.229 742H1046.69V630.906C1046.69 606.744 1064.33 590.125 1088.37 590.125C1095.91 590.125 1106.26 591.403 1111.38 593.065V544.741C1106.52 543.591 1099.74 542.824 1094.25 542.824C1072.26 542.824 1054.23 555.608 1047.07 579.898H1045.03V545.636H992.229V742ZM1193.99 628.477C1194.12 603.165 1209.59 588.335 1231.83 588.335C1253.95 588.335 1266.99 602.526 1266.86 626.688V742H1321.32V616.972C1321.45 570.949 1294.35 543.08 1253.44 543.08C1223.65 543.08 1203.71 557.142 1194.76 580.281H1192.46V480.182H1139.53V742H1193.99V628.477ZM1420.18 745.707C1449.2 745.707 1467.99 733.051 1477.58 714.77H1479.11V742H1530.76V609.557C1530.76 562.767 1491.13 543.08 1447.41 543.08C1400.36 543.08 1369.42 565.58 1361.88 601.375L1412.25 605.466C1415.96 592.426 1427.59 582.838 1447.15 582.838C1465.69 582.838 1476.3 592.17 1476.3 608.278V609.045C1476.3 621.702 1462.88 623.364 1428.74 626.688C1389.88 630.267 1354.98 643.307 1354.98 687.156C1354.98 726.02 1382.72 745.707 1420.18 745.707ZM1435.77 708.122C1419.03 708.122 1407.01 700.324 1407.01 685.366C1407.01 670.026 1419.67 662.483 1438.84 659.798C1450.73 658.136 1470.16 655.324 1476.68 650.977V671.815C1476.68 692.398 1459.68 708.122 1435.77 708.122ZM1629 745.707C1658.02 745.707 1676.82 733.051 1686.41 714.77H1687.94V742H1739.59V609.557C1739.59 562.767 1699.96 543.08 1656.23 543.08C1609.19 543.08 1578.25 565.58 1570.71 601.375L1621.08 605.466C1624.79 592.426 1636.42 582.838 1655.98 582.838C1674.52 582.838 1685.13 592.17 1685.13 608.278V609.045C1685.13 621.702 1671.7 623.364 1637.57 626.688C1598.71 630.267 1563.81 643.307 1563.81 687.156C1563.81 726.02 1591.55 745.707 1629 745.707ZM1644.6 708.122C1627.85 708.122 1615.84 700.324 1615.84 685.366C1615.84 670.026 1628.49 662.483 1647.67 659.798C1659.56 658.136 1678.99 655.324 1685.51 650.977V671.815C1685.51 692.398 1668.51 708.122 1644.6 708.122ZM1836.3 628.477C1836.43 603.165 1851.51 588.335 1873.5 588.335C1895.36 588.335 1908.53 602.653 1908.4 626.688V742H1962.86V616.972C1962.86 571.205 1936.01 543.08 1895.11 543.08C1865.96 543.08 1844.86 557.398 1836.04 580.281H1833.74V545.636H1781.84V742H1836.3V628.477ZM2090.13 742H2201.99C2260.79 742 2292.12 711.318 2292.12 669.642C2292.12 630.906 2264.37 607.511 2234.59 606.105V603.548C2261.82 597.412 2281.89 578.108 2281.89 547.298C2281.89 508.051 2252.74 480.182 2194.96 480.182H2090.13V742ZM2145.48 696.744V627.199H2191.89C2218.48 627.199 2234.97 642.54 2234.97 664.145C2234.97 683.832 2221.55 696.744 2190.61 696.744H2145.48ZM2145.48 589.741V524.926H2187.54C2212.09 524.926 2226.02 537.582 2226.02 556.503C2226.02 577.213 2209.15 589.741 2186.52 589.741H2145.48ZM2383.11 745.707C2412.13 745.707 2430.92 733.051 2440.51 714.77H2442.04V742H2493.69V609.557C2493.69 562.767 2454.06 543.08 2410.34 543.08C2363.29 543.08 2332.35 565.58 2324.81 601.375L2375.18 605.466C2378.89 592.426 2390.52 582.838 2410.08 582.838C2428.62 582.838 2439.23 592.17 2439.23 608.278V609.045C2439.23 621.702 2425.81 623.364 2391.67 626.688C2352.81 630.267 2317.91 643.307 2317.91 687.156C2317.91 726.02 2345.65 745.707 2383.11 745.707ZM2398.7 708.122C2381.96 708.122 2369.94 700.324 2369.94 685.366C2369.94 670.026 2382.59 662.483 2401.77 659.798C2413.66 658.136 2433.09 655.324 2439.61 650.977V671.815C2439.61 692.398 2422.61 708.122 2398.7 708.122ZM2590.4 628.477C2590.53 603.165 2606 588.335 2628.24 588.335C2650.36 588.335 2663.4 602.526 2663.27 626.688V742H2717.73V616.972C2717.86 570.949 2690.76 543.08 2649.85 543.08C2620.06 543.08 2600.12 557.142 2591.17 580.281H2588.87V480.182H2535.94V742H2590.4V628.477ZM2816.58 745.707C2845.6 745.707 2864.4 733.051 2873.98 714.77H2875.52V742H2927.17V609.557C2927.17 562.767 2887.53 543.08 2843.81 543.08C2796.77 543.08 2765.83 565.58 2758.29 601.375L2808.66 605.466C2812.36 592.426 2824 582.838 2843.56 582.838C2862.09 582.838 2872.7 592.17 2872.7 608.278V609.045C2872.7 621.702 2859.28 623.364 2825.15 626.688C2786.28 630.267 2751.38 643.307 2751.38 687.156C2751.38 726.02 2779.13 745.707 2816.58 745.707ZM2832.18 708.122C2815.43 708.122 2803.42 700.324 2803.42 685.366C2803.42 670.026 2816.07 662.483 2835.25 659.798C2847.14 658.136 2866.57 655.324 2873.09 650.977V671.815C2873.09 692.398 2856.09 708.122 2832.18 708.122ZM3041.77 745.196C3073.48 745.196 3089.97 726.915 3097.51 710.551H3099.81V742H3153.51V480.182H3099.18V578.619H3097.51C3090.23 562.639 3074.5 543.08 3041.65 543.08C2998.56 543.08 2962.13 576.574 2962.13 644.074C2962.13 709.784 2997.03 745.196 3041.77 745.196ZM3059.03 701.858C3032.31 701.858 3017.74 678.08 3017.74 643.818C3017.74 609.812 3032.06 586.418 3059.03 586.418C3085.5 586.418 3100.33 608.79 3100.33 643.818C3100.33 678.847 3085.24 701.858 3059.03 701.858ZM3324.21 658.392C3324.33 684.727 3306.31 698.534 3286.75 698.534C3266.17 698.534 3252.87 684.088 3252.74 660.949V545.636H3198.28V670.665C3198.41 716.56 3225.26 744.557 3264.76 744.557C3294.29 744.557 3315.51 729.344 3324.33 706.332H3326.38V742H3378.67V545.636H3324.21V658.392ZM3422.23 742H3476.69V630.906C3476.69 606.744 3494.33 590.125 3518.37 590.125C3525.91 590.125 3536.26 591.403 3541.38 593.065V544.741C3536.52 543.591 3529.74 542.824 3524.25 542.824C3502.26 542.824 3484.23 555.608 3477.07 579.898H3475.03V545.636H3422.23V742Z" fill="#5D9F53"/>
<path opacity="0.5" d="M1332.65 1015.09C1348.91 1015.09 1358.63 1007.47 1363.08 998.763H1363.89V1013H1387.37V943.639C1387.37 916.246 1365.04 908.014 1345.27 908.014C1323.48 908.014 1306.74 917.73 1301.35 936.622L1324.15 939.861C1326.58 932.776 1333.46 926.704 1345.41 926.704C1356.74 926.704 1362.95 932.506 1362.95 942.695V943.099C1362.95 950.116 1355.59 950.454 1337.31 952.411C1317.2 954.57 1297.97 960.575 1297.97 983.92C1297.97 1004.3 1312.88 1015.09 1332.65 1015.09ZM1339 997.144C1328.81 997.144 1321.52 992.489 1321.52 983.515C1321.52 974.136 1329.68 970.223 1340.62 968.671C1347.02 967.794 1359.84 966.175 1363.02 963.611V975.823C1363.02 987.361 1353.7 997.144 1339 997.144ZM1411.93 1013H1436.36V952.073C1436.36 938.916 1446.28 929.605 1459.7 929.605C1463.82 929.605 1468.95 930.347 1471.04 931.022V908.554C1468.81 908.149 1464.97 907.879 1462.27 907.879C1450.39 907.879 1440.47 914.626 1436.69 926.636H1435.62V909.364H1411.93V1013ZM1511.69 952.276C1511.69 937.297 1521 928.661 1534.09 928.661C1546.91 928.661 1554.47 936.825 1554.47 950.791V1013H1578.89V947.013C1578.89 921.981 1564.72 908.014 1543.2 908.014C1527.28 908.014 1517.15 915.234 1512.36 926.974H1511.15V874.818H1487.26V1013H1511.69V952.276ZM1633.61 1015.09C1649.87 1015.09 1659.59 1007.47 1664.04 998.763H1664.85V1013H1688.33V943.639C1688.33 916.246 1666 908.014 1646.23 908.014C1624.43 908.014 1607.7 917.73 1602.3 936.622L1625.11 939.861C1627.54 932.776 1634.42 926.704 1646.36 926.704C1657.7 926.704 1663.91 932.506 1663.91 942.695V943.099C1663.91 950.116 1656.55 950.454 1638.27 952.411C1618.16 954.57 1598.93 960.575 1598.93 983.92C1598.93 1004.3 1613.84 1015.09 1633.61 1015.09ZM1639.95 997.144C1629.76 997.144 1622.48 992.489 1622.48 983.515C1622.48 974.136 1630.64 970.223 1641.57 968.671C1647.98 967.794 1660.8 966.175 1663.97 963.611V975.823C1663.97 987.361 1654.66 997.144 1639.95 997.144ZM1742.71 1015.09C1758.97 1015.09 1768.69 1007.47 1773.14 998.763H1773.95V1013H1797.43V943.639C1797.43 916.246 1775.1 908.014 1755.33 908.014C1733.54 908.014 1716.8 917.73 1711.41 936.622L1734.21 939.861C1736.64 932.776 1743.52 926.704 1755.46 926.704C1766.8 926.704 1773.01 932.506 1773.01 942.695V943.099C1773.01 950.116 1765.65 950.454 1747.37 952.411C1727.26 954.57 1708.03 960.575 1708.03 983.92C1708.03 1004.3 1722.94 1015.09 1742.71 1015.09ZM1749.05 997.144C1738.87 997.144 1731.58 992.489 1731.58 983.515C1731.58 974.136 1739.74 970.223 1750.67 968.671C1757.08 967.794 1769.9 966.175 1773.07 963.611V975.823C1773.07 987.361 1763.76 997.144 1749.05 997.144ZM1846.42 952.276C1846.42 937.297 1855.46 928.661 1868.34 928.661C1880.96 928.661 1888.52 936.96 1888.52 950.791V1013H1912.94V947.013C1913.01 922.183 1898.84 908.014 1877.45 908.014C1861.93 908.014 1851.27 915.436 1846.55 926.974H1845.34V909.364H1821.99V1013H1846.42V952.276ZM1938.85 1013H1962.87V996.672H1964.29C1968.13 1004.23 1976.16 1014.82 1993.98 1014.82C2018.4 1014.82 2036.69 995.457 2036.69 961.317C2036.69 926.771 2017.86 908.014 1993.91 908.014C1975.62 908.014 1968 919.012 1964.29 926.501H1963.28V874.818H1938.85V1013ZM1962.8 961.182C1962.8 941.075 1971.44 928.053 1987.16 928.053C2003.42 928.053 2011.79 941.885 2011.79 961.182C2011.79 980.614 2003.29 994.783 1987.16 994.783C1971.58 994.783 1962.8 981.288 1962.8 961.182ZM2087.27 1015.09C2103.53 1015.09 2113.25 1007.47 2117.7 998.763H2118.51V1013H2141.99V943.639C2141.99 916.246 2119.66 908.014 2099.89 908.014C2078.1 908.014 2061.36 917.73 2055.97 936.622L2078.77 939.861C2081.2 932.776 2088.08 926.704 2100.02 926.704C2111.36 926.704 2117.57 932.506 2117.57 942.695V943.099C2117.57 950.116 2110.21 950.454 2091.93 952.411C2071.82 954.57 2052.59 960.575 2052.59 983.92C2052.59 1004.3 2067.5 1015.09 2087.27 1015.09ZM2093.61 997.144C2083.43 997.144 2076.14 992.489 2076.14 983.515C2076.14 974.136 2084.3 970.223 2095.23 968.671C2101.64 967.794 2114.46 966.175 2117.63 963.611V975.823C2117.63 987.361 2108.32 997.144 2093.61 997.144ZM2190.98 952.276C2190.98 937.297 2200.29 928.661 2213.38 928.661C2226.2 928.661 2233.75 936.825 2233.75 950.791V1013H2258.18V947.013C2258.18 921.981 2244.01 908.014 2222.49 908.014C2206.56 908.014 2196.44 915.234 2191.65 926.974H2190.44V874.818H2166.55V1013H2190.98V952.276ZM2312.9 1015.09C2329.16 1015.09 2338.87 1007.47 2343.33 998.763H2344.14V1013H2367.62V943.639C2367.62 916.246 2345.28 908.014 2325.51 908.014C2303.72 908.014 2286.99 917.73 2281.59 936.622L2304.4 939.861C2306.83 932.776 2313.71 926.704 2325.65 926.704C2336.98 926.704 2343.19 932.506 2343.19 942.695V943.099C2343.19 950.116 2335.84 950.454 2317.55 952.411C2297.45 954.57 2278.22 960.575 2278.22 983.92C2278.22 1004.3 2293.13 1015.09 2312.9 1015.09ZM2319.24 997.144C2309.05 997.144 2301.76 992.489 2301.76 983.515C2301.76 974.136 2309.93 970.223 2320.86 968.671C2327.27 967.794 2340.09 966.175 2343.26 963.611V975.823C2343.26 987.361 2333.95 997.144 2319.24 997.144ZM2430.64 1014.82C2448.45 1014.82 2456.48 1004.23 2460.32 996.672H2461.81V1013H2485.83V874.818H2461.34V926.501H2460.32C2456.61 919.012 2448.99 908.014 2430.7 908.014C2406.75 908.014 2387.93 926.771 2387.93 961.317C2387.93 995.457 2406.21 1014.82 2430.64 1014.82ZM2437.45 994.783C2421.32 994.783 2412.82 980.614 2412.82 961.182C2412.82 941.885 2421.19 928.053 2437.45 928.053C2453.17 928.053 2461.81 941.075 2461.81 961.182C2461.81 981.288 2453.04 994.783 2437.45 994.783ZM2577.91 969.413C2577.91 985.202 2566.64 993.028 2555.85 993.028C2544.11 993.028 2536.28 984.729 2536.28 971.572V909.364H2511.85V975.351C2511.85 1000.25 2526.02 1014.35 2546.4 1014.35C2561.92 1014.35 2572.85 1006.19 2577.57 994.58H2578.65V1013H2602.33V909.364H2577.91V969.413ZM2627.45 1013H2651.87V952.073C2651.87 938.916 2661.79 929.605 2675.22 929.605C2679.34 929.605 2684.46 930.347 2686.56 931.022V908.554C2684.33 908.149 2680.48 907.879 2677.78 907.879C2665.91 907.879 2655.99 914.626 2652.21 926.636H2651.13V909.364H2627.45V1013ZM2705.95 1014.48C2713.91 1014.48 2720.73 1007.87 2720.8 999.641C2720.73 991.544 2713.91 984.932 2705.95 984.932C2697.72 984.932 2691.04 991.544 2691.11 999.641C2691.04 1007.87 2697.72 1014.48 2705.95 1014.48ZM2791.22 1015.02C2817.26 1015.02 2833.86 999.573 2835.62 977.577H2812.27C2810.18 988.71 2802.15 995.12 2791.42 995.12C2776.17 995.12 2766.32 982.368 2766.32 961.182C2766.32 940.266 2776.38 927.716 2791.42 927.716C2803.16 927.716 2810.38 935.273 2812.27 945.259H2835.62C2833.93 922.79 2816.39 908.014 2791.09 908.014C2760.72 908.014 2741.56 929.942 2741.56 961.587C2741.56 992.961 2760.25 1015.02 2791.22 1015.02ZM2900.88 1015.02C2931.24 1015.02 2950.54 993.636 2950.54 961.587C2950.54 929.47 2931.24 908.014 2900.88 908.014C2870.52 908.014 2851.22 929.47 2851.22 961.587C2851.22 993.636 2870.52 1015.02 2900.88 1015.02ZM2901.01 995.457C2884.21 995.457 2875.98 980.479 2875.98 961.519C2875.98 942.56 2884.21 927.379 2901.01 927.379C2917.54 927.379 2925.78 942.56 2925.78 961.519C2925.78 980.479 2917.54 995.457 2901.01 995.457Z" fill="#5D9F53" fill-opacity="0.71"/>
</svg>
